<svg width="756" height="701" viewBox="0 0 756 701" fill="none" xmlns="http://www.w3.org/2000/svg">
<rect width="756" height="701" fill="#F5F5F5"/>
<g id="lovers" clip-path="url(#clip0_0_1)">
<g id="boy">
<path id="Vector" d="M251.526 447.256L269.95 446.786L261.42 424.696L246.466 429.698L251.526 447.256Z" fill="#FAAFB2"/>
<g id="Group 3">
<path id="uuid-55fa1ace-1880-4e3c-ae22-5abe9602db63-66" d="M304.811 549.414C305.778 553.856 304.006 557.918 300.847 558.479C297.689 559.039 294.348 555.897 293.381 551.445C292.962 549.675 293.037 547.834 293.574 546.093L289.739 527.214L299.655 525.753L302.383 544.522C303.619 545.953 304.446 547.634 304.801 549.414H304.811Z" fill="#FAAFB2"/>
<g id="Group 2">
<g id="boy_2">
<path id="Vector_2" d="M255.844 432.459C265.486 432.459 273.302 425.181 273.302 416.202C273.302 407.223 265.486 399.944 255.844 399.944C246.203 399.944 238.387 407.223 238.387 416.202C238.387 425.181 246.203 432.459 255.844 432.459Z" fill="#FAAFB2"/>
<g id="Group">
<path id="Vector_3" d="M239.096 687.97H252.772V669.901H239.096V687.97Z" fill="#FAAFB2"/>
<path id="Vector_4" d="M251.246 698.324C248.904 698.525 237.205 699.385 236.625 696.884C236.088 694.593 236.872 692.192 236.99 691.871C238.118 681.447 238.537 681.336 238.784 681.266C239.182 681.156 240.342 681.667 242.233 682.807L242.351 682.877L242.373 683.007C242.405 683.167 243.243 686.999 247.207 686.409C249.925 686.009 250.806 685.448 251.085 685.178C250.849 685.078 250.57 684.908 250.365 684.618C250.075 684.198 250.022 683.648 250.215 682.987C250.731 681.256 252.256 678.695 252.321 678.585L252.493 678.295L268.038 688.06L277.631 690.611C278.351 690.801 278.942 691.281 279.232 691.931C279.64 692.832 279.382 693.882 278.609 694.533C276.869 695.993 273.399 698.485 269.767 698.805C268.801 698.885 267.522 698.925 266.083 698.925C260.077 698.925 251.322 698.344 251.257 698.334L251.246 698.324Z" fill="#2F2E43"/>
</g>
<g id="Group_2">
<path id="Vector_5" d="M181.265 682.649L194.675 685.147L198.48 667.43L185.07 664.932L181.265 682.649Z" fill="#FAAFB2"/>
<path id="Vector_6" d="M191.042 695.023C188.711 694.793 177.055 693.492 177.001 690.941C176.958 688.59 178.237 686.389 178.419 686.089C181.717 676.074 182.147 676.034 182.416 676.014C182.835 675.984 183.866 676.694 185.477 678.155L185.574 678.245V678.375C185.574 678.545 185.585 682.447 189.592 682.597C192.342 682.697 193.32 682.317 193.653 682.097C193.449 681.957 193.202 681.737 193.062 681.416C192.858 680.946 192.922 680.396 193.255 679.786C194.125 678.185 196.156 675.954 196.242 675.854L196.467 675.604L209.649 688.02L218.523 692.282C219.189 692.602 219.662 693.182 219.812 693.872C220.016 694.833 219.554 695.813 218.652 696.314C216.632 697.424 212.711 699.245 209.08 698.885C208.113 698.785 206.856 698.585 205.449 698.324C199.561 697.224 191.096 695.063 191.031 695.043L191.042 695.023Z" fill="#2F2E43"/>
</g>
<path id="Vector_7" d="M274.784 524.293L209.649 517.829L179.676 668.28L200.528 670.701L235.701 571.615L233.961 673.533H256.543L274.784 524.293Z" fill="#2F2E43"/>
<path id="Vector_8" d="M271.304 437.782L235.701 434.1L200.528 540.06C200.528 540.06 218.33 536.828 229.191 547.343C240.052 557.858 277.438 545.913 277.438 545.913L271.304 437.772V437.782Z" fill="#DFDFE0"/>
<path id="Vector_9" d="M257.639 436.531L271.304 437.782C277.889 439.082 283.014 443.895 284.367 450.038L304.242 540.05H290.802L257.628 436.521L257.639 436.531Z" fill="#DFDFE0"/>
<path id="Vector_10" d="M246.079 426.326L247.798 425.596C247.078 422.575 246.423 419.173 248.249 416.592C249.259 415.171 250.978 414.051 251.193 412.36C251.375 410.959 250.419 409.528 250.838 408.168C251.279 406.737 252.997 406.077 254.512 405.597C256.886 404.856 259.304 404.106 261.796 404.046C264.299 403.996 266.942 404.746 268.532 406.537C269.026 407.087 269.402 407.728 269.767 408.348C271.024 410.469 273.194 414.571 273.194 414.571C273.194 414.571 273.109 413.63 273.119 411.76C273.753 410.119 274.655 408.528 274.806 406.797C274.989 404.706 274.054 402.655 272.786 400.924C269.907 396.993 265.062 394.261 259.948 394.051C254.835 393.831 250.151 394.161 247.561 398.273C247.078 399.044 246.681 399.874 246.068 400.564C244.94 401.845 243.232 402.525 241.846 403.556C238.763 405.857 236.593 410.089 236.808 413.771C237.023 417.452 238.473 420.954 239.912 424.385C241.148 427.347 243.694 430.358 246.917 431.399C246.573 429.808 246.24 428.217 245.896 426.627" fill="#2F2E43"/>
</g>
<g id="Group_3">
<path id="Vector_11" d="M257.23 438.462L257.026 438.722L250.817 446.626L243.651 455.76L242.04 457.811L236.131 465.345C236.131 465.345 234.24 467.436 231.125 470.057L231.06 470.107C229.943 471.047 228.675 472.048 227.279 473.048C219.382 478.711 207.501 484.244 197.187 476.81C184.091 467.366 212.818 446.316 227.44 436.711C232.242 433.55 238.365 432.699 243.952 434.4L257.23 438.462Z" fill="#DFDFE0"/>
<path id="Vector_12" d="M256.897 449.567C255.576 450.388 254.083 450.938 252.514 451.208C252.16 451.268 251.805 451.318 251.44 451.348L244.006 456.461L242.04 457.811L235.078 462.603L229.288 454.96L239.977 448.387L246.509 444.365C247.486 442.794 248.851 441.464 250.505 440.513C252.525 439.303 254.716 438.702 256.618 438.702H256.629C256.768 438.702 256.897 438.702 257.026 438.722C258.799 438.792 260.292 439.423 261.119 440.603C262.892 443.104 260.99 447.116 256.897 449.567Z" fill="#FAAFB2"/>
<path id="Vector_13" d="M245.284 459.022L239.827 448.057L215.644 456.461L227.279 473.048L245.284 459.022Z" fill="#DFDFE0"/>
</g>
</g>
</g>
</g>
<g id="kite">
<path id="Vector_14" d="M430.126 244.535L543.723 81.8485L430.126 0L316.518 81.8485L430.126 244.535Z" fill="#E50913"/>
<path id="Vector_15" d="M430.652 0H429.578V244.535H430.652V0Z" fill="#2F2E43"/>
<path id="Vector_16" d="M316.744 82.2987L316.292 81.3883C316.582 81.2682 345.524 68.8124 387.841 62.6295C426.903 56.9268 485.71 55.5561 543.959 81.3883L543.497 82.2887C485.506 56.5666 426.946 57.9373 388.035 63.6099C345.857 69.7628 317.023 82.1587 316.744 82.2887V82.2987Z" fill="#2F2E43"/>
<path id="Vector_17" d="M258.119 474.053L253.488 454.534C251.222 444.979 257.034 435.535 267.014 432.584C331.429 413.485 358.964 381.35 369.642 363.891C404.224 307.355 429.374 244.985 429.621 244.365L430.631 244.715C430.384 245.335 405.213 307.785 370.577 364.392C345.513 405.361 295.139 425.3 267.336 433.544C257.893 436.345 252.393 445.28 254.541 454.324L259.171 473.843L258.119 474.053Z" fill="#2F2E43"/>
</g>
<g id="girl">
<path id="Vector_18" d="M693.433 402.188C693.433 402.188 680.004 399.156 671.871 417.465C665.092 432.722 660.29 440.876 665.791 446.418C667.757 448.399 670.561 449.47 673.461 449.56L704.423 450.5C704.423 450.5 715.789 422.747 708.881 412.713C701.973 402.678 693.443 402.188 693.443 402.188H693.433Z" fill="#2F2E43"/>
<path id="Vector_19" d="M699.846 448.209L684.956 452.761V432.802H698.46L699.846 448.209Z" fill="#FAAFB2"/>
<path id="Vector_20" d="M688.416 690.093H674.471L666.382 620.691H687.943L688.416 690.093Z" fill="#FAAFB2"/>
<path id="Vector_21" d="M660.892 701.248C659.42 701.248 658.12 701.218 657.132 701.128C653.426 700.808 649.891 698.267 648.118 696.776C647.323 696.106 647.066 695.045 647.485 694.125C647.785 693.465 648.376 692.975 649.118 692.774L658.904 690.173L674.75 680.219L674.922 680.519C674.987 680.629 676.545 683.24 677.071 685.001C677.264 685.671 677.221 686.231 676.921 686.662C676.716 686.962 676.426 687.132 676.19 687.232C676.48 687.512 677.372 688.082 680.144 688.492C684.194 689.093 685.032 685.191 685.075 685.021L685.096 684.891L685.214 684.821C687.137 683.67 688.319 683.14 688.727 683.25C688.985 683.32 689.415 683.44 690.554 694.065C690.672 694.395 691.477 696.846 690.93 699.177C690.328 701.719 678.403 700.848 676.018 700.648C675.954 700.648 667.016 701.248 660.892 701.248Z" fill="#2F2E43"/>
<path id="Vector_22" d="M719.925 690.093H705.981L697.891 620.691H719.452L719.925 690.093Z" fill="#FAAFB2"/>
<path id="Vector_23" d="M692.401 701.248C690.93 701.248 689.63 701.218 688.641 701.128C684.935 700.808 681.4 698.267 679.628 696.776C678.833 696.106 678.575 695.045 678.994 694.125C679.295 693.465 679.886 692.975 680.627 692.774L690.414 690.173L706.26 680.219L706.432 680.519C706.496 680.629 708.054 683.24 708.58 685.001C708.774 685.671 708.731 686.231 708.43 686.662C708.226 686.962 707.936 687.132 707.699 687.232C707.989 687.512 708.881 688.082 711.653 688.492C715.703 689.093 716.541 685.191 716.584 685.021L716.605 684.891L716.724 684.821C718.647 683.67 719.839 683.14 720.237 683.25C720.494 683.32 720.924 683.44 722.063 694.065C722.181 694.395 722.987 696.846 722.439 699.177C721.848 701.719 709.913 700.848 707.528 700.648C707.463 700.648 698.525 701.248 692.401 701.248Z" fill="#2F2E43"/>
<path id="Vector_24" d="M723.943 519.633H656.176L680.53 444.968H707.549L723.943 519.633Z" fill="#DFDFE0"/>
<g id="Group_4">
<path id="uuid-fd4f2c97-fb62-4a05-8832-5ff88c74de66-67" d="M654.328 561.523C653.522 566.095 650.246 569.376 647.012 568.846C643.778 568.316 641.812 564.184 642.618 559.612C642.908 557.781 643.692 556.05 644.885 554.559L648.58 535.23L658.625 537.191L653.92 556.04C654.543 557.821 654.682 559.702 654.328 561.533V561.523Z" fill="#FAAFB2"/>
<path id="Vector_25" d="M684.795 444.988C684.795 444.988 667.961 444.578 666.188 448.7C664.416 452.821 643.596 550.998 643.596 550.998H657.325L684.785 444.988H684.795Z" fill="#DFDFE0"/>
</g>
<path id="Vector_26" d="M688.373 437.514C696.566 437.514 703.209 431.328 703.209 423.698C703.209 416.067 696.566 409.881 688.373 409.881C680.179 409.881 673.537 416.067 673.537 423.698C673.537 431.328 680.179 437.514 688.373 437.514Z" fill="#FAAFB2"/>
<path id="Vector_27" d="M690.704 406.75C690.704 406.75 671.657 433.142 674.858 449.6L663.782 443.137C663.782 443.137 671.581 409.811 683.216 407.22L690.715 406.74L690.704 406.75Z" fill="#2F2E43"/>
<path id="Vector_28" d="M709.859 519.633H665.383L641.049 612.637C640.598 616.569 643.273 620.23 647.377 621.251C660.731 624.582 692.767 629.295 741.25 616.158C745.913 614.898 748.566 610.306 747.094 605.994L709.859 519.633Z" fill="#2F2E43"/>
<g id="Group_5">
<path id="Vector_29" d="M691.875 444.968L705.712 444.397C711.707 444.818 717.121 447.859 720.333 452.581C730.109 466.968 748.394 497.302 732.065 501.454C710.546 506.927 700.115 476.453 700.115 476.453L691.875 444.958V444.968Z" fill="#DFDFE0"/>
<path id="uuid-5f0663b3-514b-4d25-bf17-95b52eadc03c-68" d="M687.127 454.012C684.28 450.21 684.183 445.728 686.901 444.007C689.619 442.286 694.12 443.977 696.956 447.789C698.117 449.29 698.858 451.041 699.105 452.881L710.922 469.149L702.253 474.262L691.531 457.684C689.748 456.803 688.244 455.543 687.137 454.012H687.127Z" fill="#FAAFB2"/>
<path id="Vector_30" d="M694.12 467.168L703.886 458.794L723.191 475.532L705.239 486.958L694.12 467.168Z" fill="#DFDFE0"/>
</g>
</g>
<g id="background">
<path id="Vector_31" d="M6.5849 693.828C6.5849 693.828 7.14636 682.084 18.6566 683.449Z" fill="#3F3D56"/>
<path id="Vector_32" d="M3.33262 682.653C6.51421 682.653 9.0934 680.078 9.0934 676.902C9.0934 673.726 6.51421 671.151 3.33262 671.151C0.151029 671.151 -2.42816 673.726 -2.42816 676.902C-2.42816 680.078 0.151029 682.653 3.33262 682.653Z" fill="#E50913"/>
<path id="Vector_33" d="M4.0214 686.586H2.39526V697.948H4.0214V686.586Z" fill="#3F3D56"/>
<path id="Vector_34" d="M100.9 694.64C100.9 694.64 101.462 682.896 112.972 684.261Z" fill="#3F3D56"/>
<path id="Vector_35" d="M97.6482 683.464C100.83 683.464 103.409 680.889 103.409 677.714C103.409 674.538 100.83 671.963 97.6482 671.963C94.4666 671.963 91.8874 674.538 91.8874 677.714C91.8874 680.889 94.4666 683.464 97.6482 683.464Z" fill="#E50913"/>
<path id="Vector_36" d="M98.3369 687.397H96.7108V698.76H98.3369V687.397Z" fill="#3F3D56"/>
<g id="background_2">
<path id="Vector_37" d="M629.389 245.02C672.273 245.02 707.037 210.318 707.037 167.51C707.037 124.702 672.273 90 629.389 90C586.506 90 551.741 124.702 551.741 167.51C551.741 210.318 586.506 245.02 629.389 245.02Z" fill="#FF6584"/>
<path id="Vector_38" d="M322.267 160.355L333.823 151.129C324.846 150.141 321.157 155.028 319.648 158.896C312.635 155.989 305 159.799 305 159.799L328.12 168.177C326.954 165.067 324.924 162.354 322.267 160.355Z" fill="#3F3D56"/>
<path id="Vector_39" d="M527.463 259.074L539.018 249.848C530.041 248.859 526.353 253.746 524.843 257.615C517.83 254.708 510.195 258.517 510.195 258.517L533.316 266.896C532.149 263.786 530.119 261.073 527.463 259.074Z" fill="#3F3D56"/>
<path id="Vector_40" d="M337.92 339.268L349.475 330.042C340.498 329.053 336.81 333.94 335.3 337.809C328.287 334.902 320.652 338.711 320.652 338.711L343.773 347.09C342.606 343.98 340.576 341.267 337.92 339.268Z" fill="#3F3D56"/>
</g>
<path id="Vector_41" d="M60.9589 699.714C60.9589 699.714 61.5203 687.97 73.0305 689.335Z" fill="#3F3D56"/>
<path id="Vector_42" d="M200.189 699.714C200.189 699.714 199.627 687.97 188.117 689.335Z" fill="#3F3D56"/>
<path id="Vector_43" d="M35.1366 699.714C35.1366 699.714 34.5751 687.97 23.0649 689.335Z" fill="#3F3D56"/>
<path id="Vector_44" d="M661.197 699.714C661.197 699.714 660.635 687.97 649.125 689.335Z" fill="#3F3D56"/>
<path id="Vector_45" d="M747.984 698.179H-54V699.982H747.984V698.179Z" fill="#3F3D56"/>
</g>
</g>
<defs>
<clipPath id="clip0_0_1">
<rect width="756" height="701" fill="white"/>
</clipPath>
</defs>
</svg>
